<?xml version="1.0" encoding="utf-8"?>
<svg width="780px" height="220px" viewBox="0 0 780 220" version="1.1" xmlns:xlink="http://www.w3.org/1999/xlink" xmlns="http://www.w3.org/2000/svg">
  <defs>
    <rect width="780" height="220" id="artboard_1" />
    <clipPath id="clip_1">
      <use xlink:href="#artboard_1" clip-rule="evenodd" />
    </clipPath>
  </defs>
  <g id="Banner" clip-path="url(#clip_1)">
    <path d="M332.999 33L427.001 33Q427.197 33 427.393 33.0096Q427.59 33.0193 427.785 33.0385Q427.98 33.0578 428.175 33.0866Q428.369 33.1154 428.561 33.1537Q428.754 33.192 428.945 33.2397Q429.135 33.2874 429.323 33.3444Q429.511 33.4014 429.696 33.4676Q429.881 33.5337 430.062 33.6089Q430.243 33.684 430.421 33.768Q430.598 33.8519 430.772 33.9445Q430.945 34.0371 431.113 34.138Q431.282 34.239 431.445 34.3481Q431.608 34.4572 431.766 34.5741Q431.924 34.6911 432.076 34.8157Q432.227 34.9403 432.373 35.0721Q432.518 35.204 432.657 35.3429Q432.796 35.4817 432.928 35.6272Q433.06 35.7727 433.184 35.9245Q433.309 36.0763 433.426 36.234Q433.543 36.3917 433.652 36.555Q433.761 36.7183 433.862 36.8867Q433.963 37.0551 434.055 37.2283Q434.148 37.4015 434.232 37.579Q434.316 37.7565 434.391 37.9379Q434.466 38.1193 434.532 38.3042Q434.598 38.4891 434.656 38.677Q434.712 38.8649 434.76 39.0554Q434.808 39.2459 434.846 39.4385Q434.885 39.6311 434.913 39.8253Q434.942 40.0195 434.961 40.215Q434.981 40.4104 434.99 40.6065Q435 40.8026 435 40.999L435 185.001Q435 185.197 434.99 185.393Q434.981 185.59 434.961 185.785Q434.942 185.98 434.913 186.175Q434.885 186.369 434.846 186.562Q434.808 186.754 434.76 186.945Q434.712 187.135 434.656 187.323Q434.598 187.511 434.532 187.696Q434.466 187.881 434.391 188.062Q434.316 188.243 434.232 188.421Q434.148 188.598 434.055 188.772Q433.963 188.945 433.862 189.113Q433.761 189.282 433.652 189.445Q433.543 189.608 433.426 189.766Q433.309 189.924 433.184 190.076Q433.06 190.227 432.928 190.373Q432.796 190.518 432.657 190.657Q432.518 190.796 432.373 190.928Q432.227 191.06 432.076 191.184Q431.924 191.309 431.766 191.426Q431.608 191.543 431.445 191.652Q431.282 191.761 431.113 191.862Q430.945 191.963 430.772 192.055Q430.598 192.148 430.421 192.232Q430.243 192.316 430.062 192.391Q429.881 192.466 429.696 192.532Q429.511 192.599 429.323 192.656Q429.135 192.713 428.945 192.76Q428.754 192.808 428.561 192.846Q428.369 192.885 428.175 192.913Q427.98 192.942 427.785 192.962Q427.59 192.981 427.393 192.99Q427.197 193 427.001 193L332.999 193Q332.803 193 332.607 192.99Q332.41 192.981 332.215 192.962Q332.02 192.942 331.825 192.913Q331.631 192.885 331.438 192.846Q331.246 192.808 331.055 192.76Q330.865 192.713 330.677 192.656Q330.489 192.599 330.304 192.532Q330.119 192.466 329.938 192.391Q329.756 192.316 329.579 192.232Q329.401 192.148 329.228 192.055Q329.055 191.963 328.887 191.862Q328.718 191.761 328.555 191.652Q328.392 191.543 328.234 191.426Q328.076 191.309 327.924 191.184Q327.773 191.06 327.627 190.928Q327.482 190.796 327.343 190.657Q327.204 190.518 327.072 190.373Q326.94 190.227 326.816 190.076Q326.691 189.924 326.574 189.766Q326.457 189.608 326.348 189.445Q326.239 189.282 326.138 189.113Q326.037 188.945 325.945 188.772Q325.852 188.599 325.768 188.421Q325.684 188.243 325.609 188.062Q325.534 187.881 325.468 187.696Q325.401 187.511 325.344 187.323Q325.287 187.135 325.24 186.945Q325.192 186.754 325.154 186.561Q325.115 186.369 325.087 186.175Q325.058 185.98 325.039 185.785Q325.019 185.59 325.01 185.393Q325 185.197 325 185.001L325 40.999Q325 40.8026 325.01 40.6065Q325.019 40.4104 325.039 40.215Q325.058 40.0195 325.087 39.8253Q325.115 39.6311 325.154 39.4385Q325.192 39.2459 325.24 39.0554Q325.287 38.8649 325.344 38.677Q325.401 38.4891 325.468 38.3042Q325.534 38.1193 325.609 37.9379Q325.684 37.7565 325.768 37.579Q325.852 37.4015 325.945 37.2283Q326.037 37.0551 326.138 36.8867Q326.239 36.7183 326.348 36.555Q326.457 36.3917 326.574 36.234Q326.691 36.0763 326.816 35.9245Q326.94 35.7727 327.072 35.6272Q327.204 35.4817 327.343 35.3428Q327.482 35.204 327.627 35.0721Q327.773 34.9403 327.924 34.8157Q328.076 34.6911 328.234 34.5741Q328.392 34.4572 328.555 34.3481Q328.718 34.239 328.887 34.138Q329.055 34.0371 329.228 33.9445Q329.401 33.8519 329.579 33.768Q329.756 33.684 329.938 33.6089Q330.119 33.5337 330.304 33.4676Q330.489 33.4014 330.677 33.3444Q330.865 33.2874 331.055 33.2397Q331.246 33.192 331.438 33.1537Q331.631 33.1154 331.825 33.0866Q332.02 33.0578 332.215 33.0385Q332.41 33.0193 332.607 33.0096Q332.803 33 332.999 33Z" id="Rectangle" fill="#1D63DC" fill-rule="evenodd" stroke="none" artboard="9480d605-6a22-4c49-8e2e-61e5f8fced97" />
    <g id="Blue" fill="#1D63DC" transform="translate(19 14)" artboard="9e01ca5a-3289-43a7-a394-85ee1f4b013f">
      <path d="M109.08 145.828Q114.48 148.492 122.688 148.492L133.776 148.492L133.776 133.084L127.872 132.22Q125.136 131.788 123.336 130.636Q121.536 129.484 120.672 126.964Q119.808 124.444 119.808 120.124L119.808 38.332L98.496 38.332L98.496 123.292Q98.496 132.076 101.088 137.62Q103.68 143.164 109.08 145.828ZM9.216 41.644L9.216 148.204L52.992 148.204Q63.36 148.204 70.488 145.396Q77.616 142.588 81.288 136.108Q84.96 129.628 84.96 118.828Q84.96 112.924 83.448 108.388Q81.936 103.852 79.272 100.684Q76.608 97.516 73.368 95.644Q70.128 93.772 66.672 92.908Q71.28 91.756 74.592 88.66Q77.904 85.564 79.704 80.74Q81.504 75.916 81.504 69.58Q81.504 56.188 74.232 48.916Q66.96 41.644 51.12 41.644L9.216 41.644ZM51.264 85.564L30.528 85.564L30.528 60.796L50.976 60.796Q55.296 60.796 58.32 63.532Q61.344 66.268 61.2 73.324Q61.2 78.796 58.536 82.18Q55.872 85.564 51.264 85.564ZM241.344 145.54Q248.976 148.924 261.792 148.924Q271.008 148.924 277.704 147.844Q284.4 146.764 290.016 145.612L290.016 133.084L267.408 133.084Q259.632 133.084 255.528 131.572Q251.424 130.06 249.912 126.532Q248.4 123.004 248.112 117.1L267.552 117.1Q275.184 117.1 280.8 115.156Q286.416 113.212 289.512 108.676Q292.608 104.14 292.608 96.364Q292.608 85.852 289.512 80.092Q286.416 74.332 279.504 72.028Q272.592 69.724 261.072 69.724Q248.256 69.724 240.768 73.18Q233.28 76.636 230.112 85.276Q226.944 93.916 226.944 109.612Q226.944 124.876 230.328 133.516Q233.712 142.156 241.344 145.54ZM165.456 149.068Q155.088 149.068 149.184 142.948Q143.28 136.828 143.28 125.596L143.28 70.876L164.592 70.876L164.592 119.26Q164.592 125.74 167.688 127.972Q170.784 130.204 175.824 130.204Q179.856 130.204 184.104 128.692Q188.352 127.18 191.664 124.588L191.664 70.876L213.12 70.876L213.12 148.204L195.408 148.204L191.664 140.284Q186.48 143.74 179.712 146.404Q172.944 149.068 165.456 149.068ZM265.392 104.428L247.824 104.428Q247.824 96.796 249.12 92.62Q250.416 88.444 253.296 86.788Q256.176 85.132 261.072 85.132Q265.68 85.132 268.416 86.212Q271.152 87.292 272.448 89.812Q273.744 92.332 273.744 96.508Q273.744 100.972 271.728 102.7Q269.712 104.428 265.392 104.428ZM52.416 129.052L30.528 129.052L30.528 101.98L52.416 101.98Q56.016 101.98 58.752 103.564Q61.488 105.148 63.072 108.028Q64.656 110.908 64.656 115.084Q64.656 120.124 63.144 123.148Q61.632 126.172 58.896 127.612Q56.16 129.052 52.416 129.052Z" />
    </g>
    <g id="yber" fill="#1D63DC" transform="translate(447 13)" artboard="fa2b4097-792d-430a-950e-0e2e2d26eb37">
      <path d="M124.848 147.916Q128.88 149.068 133.92 149.068Q142.992 149.068 148.824 144.82Q154.656 140.572 157.464 131.932Q160.272 123.292 160.272 110.332Q160.272 95.788 157.536 86.932Q154.8 78.076 148.824 73.9Q142.848 69.724 132.912 69.724Q127.584 69.724 121.824 71.74Q116.064 73.756 111.456 76.204L111.456 38.332L90.144 38.332L90.144 148.204L108 148.204L111.456 140.86Q114.336 143.02 117.576 144.892Q120.816 146.764 124.848 147.916ZM206.928 148.924Q194.112 148.924 186.48 145.54Q178.848 142.156 175.464 133.516Q172.08 124.876 172.08 109.612Q172.08 93.916 175.248 85.276Q178.416 76.636 185.904 73.18Q193.392 69.724 206.208 69.724Q217.728 69.724 224.64 72.028Q231.552 74.332 234.648 80.092Q237.744 85.852 237.744 96.364Q237.744 104.14 234.648 108.676Q231.552 113.212 225.936 115.156Q220.32 117.1 212.688 117.1L193.248 117.1Q193.536 123.004 195.048 126.532Q196.56 130.06 200.664 131.572Q204.768 133.084 212.544 133.084L235.152 133.084L235.152 145.612Q229.536 146.764 222.84 147.844Q216.144 148.924 206.928 148.924ZM251.712 70.876L251.712 148.204L273.024 148.204L273.024 100.108Q275.616 97.228 278.424 95.428Q281.232 93.628 284.616 92.692Q288 91.756 292.176 91.756Q294.336 91.756 296.712 91.972Q299.088 92.188 301.248 92.476L301.248 70.588Q299.808 70.156 298.152 70.012Q296.496 69.868 294.912 69.868Q287.712 69.868 282.456 73.612Q277.2 77.356 273.024 82.684L268.128 70.876L251.712 70.876ZM40.752 148.204L32.4 182.332L50.112 182.332L57.024 168.076L80.064 70.876L58.464 70.876L44.496 130.78Q43.92 130.78 42.84 130.564Q41.76 130.348 40.464 129.7Q39.168 129.052 38.016 127.468Q36.864 125.884 36.144 123.148L23.904 70.876L1.728 70.876L16.272 127.468Q18 134.236 21.24 138.772Q24.48 143.308 29.376 145.756Q34.272 148.204 40.752 148.204ZM192.96 104.428L210.528 104.428Q214.848 104.428 216.864 102.7Q218.88 100.972 218.88 96.508Q218.88 92.332 217.584 89.812Q216.288 87.292 213.552 86.212Q210.816 85.132 206.208 85.132Q201.312 85.132 198.432 86.788Q195.552 88.444 194.256 92.62Q192.96 96.796 192.96 104.428ZM132.696 129.7Q129.744 131.644 126 131.644Q121.248 131.644 117.72 130.492Q114.192 129.34 111.456 127.9L111.456 91.18Q114.336 89.596 118.008 88.228Q121.68 86.86 126 86.86Q129.456 86.86 132.408 88.372Q135.36 89.884 137.16 94.564Q138.96 99.244 138.96 109.324Q138.96 117.964 137.304 122.86Q135.648 127.756 132.696 129.7Z" />
    </g>
    <g id="C" fill="#FFFFFF" transform="translate(339 14)" artboard="ecc8b89b-4bb8-452a-8d30-01244e27de8e">
      <path d="M45.072 149.068Q35.712 149.068 28.584 146.908Q21.456 144.748 16.488 138.988Q11.52 133.228 9 122.5Q6.48 111.772 6.48 94.636Q6.48 78.076 9.144 67.492Q11.808 56.908 16.848 51.076Q21.888 45.244 29.088 42.94Q36.288 40.636 45.36 40.636Q52.56 40.636 58.824 41.428Q65.088 42.22 70.128 43.3Q75.168 44.38 78.624 45.676L78.624 62.236Q76.032 61.66 71.64 61.084Q67.248 60.508 61.632 60.148Q56.016 59.788 49.824 59.788Q43.776 59.788 39.528 61.156Q35.28 62.524 32.76 66.196Q30.24 69.868 29.016 76.78Q27.792 83.692 27.792 94.78Q27.792 105.436 28.872 112.348Q29.952 119.26 32.4 123.076Q34.848 126.892 39.096 128.404Q43.344 129.916 49.824 129.916Q60.768 129.916 67.608 129.484Q74.448 129.052 78.624 128.476L78.624 144.892Q74.736 146.188 69.696 147.124Q64.656 148.06 58.608 148.564Q52.56 149.068 45.072 149.068Z" />
    </g>
  </g>
</svg>