<svg xmlns="http://www.w3.org/2000/svg" enable-background="new 0 0 2750 2000" viewBox="0 0 2750 2000"><path fill="#e1f2ff" d="M2546.84,1260.73c-153,730.79-1068.87,620.14-1619.94,553.38c-349.11-39.44-785.91-280.25-733-698.97
			c42.15-261.27,285.63-403.5,440.39-591.95c152.14-269.13,337.59-457.24,662.27-359.9c121.63,42.1,224.37,132.08,343.01,183.36
			c194.9,83.21,424.22,61.67,603.84,186.48C2472.45,684.24,2604.94,983.95,2546.84,1260.73z"/><polygon fill="#60b3e5" points="619.09 1547.33 607.27 1596.59 913.94 1372.05"/><polygon fill="#a6d8f9" points="551.71 1454.11 913.94 1372.05 705.76 1641.09"/><polygon fill="#7fc8f4" points="913.94 1372.05 609.31 1524.02 607.27 1596.59 633.54 1553.44"/><path fill="#b9e0fb" d="M2396.99,907.83c-5.9-1.6-11.02-5.75-13.55-11.79c-2.53-6.04-1.88-12.57,1.14-17.84
					c-3.72-4.91-8.13-9.28-13.09-12.96c-5.31,3.01-11.9,3.67-17.99,1.17c-6.09-2.5-10.28-7.56-11.91-13.41
					c-3-0.42-6.07-0.65-9.19-0.65c-3.16,0-6.27,0.24-9.31,0.67c-1.61,5.85-5.8,10.93-11.88,13.44c-6.09,2.51-12.67,1.86-17.99-1.13
					c-4.95,3.69-9.35,8.06-13.07,12.98c3.03,5.27,3.7,11.8,1.18,17.84c-2.52,6.04-7.63,10.2-13.52,11.81
					c-0.42,2.98-0.66,6.02-0.66,9.11c0,3.14,0.24,6.22,0.67,9.24c5.9,1.6,11.02,5.75,13.55,11.78c2.53,6.04,1.88,12.57-1.14,17.84
					c3.72,4.91,8.13,9.28,13.09,12.96c5.31-3.01,11.9-3.67,17.99-1.17c6.09,2.5,10.28,7.56,11.91,13.41c3,0.42,6.07,0.65,9.19,0.65
					c3.16,0,6.27-0.24,9.31-0.67c1.61-5.85,5.8-10.93,11.88-13.44c6.09-2.51,12.67-1.86,17.99,1.13c4.95-3.69,9.35-8.06,13.07-12.98
					c-3.03-5.27-3.7-11.8-1.18-17.84c2.52-6.04,7.63-10.2,13.52-11.81c0.42-2.98,0.66-6.02,0.66-9.11
					C2397.66,913.92,2397.42,910.84,2396.99,907.83z M2332.41,948.64c-17.58,0-31.84-14.14-31.84-31.57
					c0-17.44,14.25-31.57,31.84-31.57c17.58,0,31.84,14.14,31.84,31.57C2364.25,934.5,2350,948.64,2332.41,948.64z"/><ellipse cx="2332.41" cy="917.06" fill="#b9e0fb" rx="18.62" ry="18.46"/><path fill="#b9e0fb" d="M2285.96,1522.22c-8.48-2.3-15.84-8.26-19.48-16.94c-3.64-8.68-2.7-18.06,1.64-25.65
					c-5.35-7.06-11.69-13.33-18.81-18.63c-7.64,4.32-17.1,5.27-25.86,1.68c-8.76-3.59-14.78-10.87-17.12-19.28
					c-4.32-0.6-8.72-0.94-13.21-0.94c-4.55,0-9.01,0.34-13.39,0.96c-2.32,8.41-8.33,15.71-17.08,19.31
					c-8.75,3.61-18.21,2.68-25.86-1.63c-7.11,5.31-13.45,11.59-18.78,18.66c4.36,7.57,5.32,16.96,1.7,25.65
					c-3.62,8.68-10.97,14.66-19.44,16.98c-0.61,4.28-0.94,8.65-0.94,13.1c0,4.51,0.34,8.94,0.97,13.28
					c8.48,2.3,15.84,8.26,19.48,16.94c3.64,8.68,2.7,18.06-1.64,25.65c5.35,7.06,11.69,13.33,18.81,18.63
					c7.64-4.32,17.1-5.27,25.86-1.68c8.76,3.59,14.78,10.87,17.12,19.28c4.32,0.6,8.72,0.94,13.2,0.94c4.55,0,9.01-0.34,13.39-0.96
					c2.32-8.41,8.33-15.71,17.08-19.31c8.75-3.61,18.22-2.68,25.86,1.63c7.11-5.31,13.45-11.59,18.78-18.66
					c-4.36-7.57-5.32-16.96-1.7-25.65c3.62-8.68,10.97-14.66,19.44-16.98c0.61-4.28,0.94-8.65,0.94-13.1
					C2286.93,1530.98,2286.58,1526.55,2285.96,1522.22z M2193.13,1580.88c-25.28,0-45.77-20.32-45.77-45.39
					c0-25.07,20.49-45.39,45.77-45.39c25.28,0,45.77,20.32,45.77,45.39C2238.89,1560.56,2218.4,1580.88,2193.13,1580.88z"/><ellipse cx="2193.13" cy="1535.49" fill="#b9e0fb" rx="26.76" ry="26.54"/><g><path fill="#b9e0fb" d="M770.3,623.74c-5.9-1.6-11.02-5.75-13.55-11.79c-2.53-6.04-1.88-12.57,1.14-17.84
					c-3.72-4.91-8.13-9.28-13.09-12.96c-5.31,3.01-11.9,3.67-17.99,1.17c-6.09-2.5-10.28-7.56-11.91-13.41
					c-3-0.42-6.07-0.65-9.19-0.65c-3.16,0-6.27,0.24-9.31,0.67c-1.61,5.85-5.8,10.93-11.88,13.44c-6.09,2.51-12.67,1.86-17.99-1.13
					c-4.95,3.69-9.35,8.06-13.07,12.98c3.03,5.27,3.7,11.8,1.18,17.84c-2.52,6.04-7.63,10.2-13.52,11.81
					c-0.42,2.98-0.66,6.02-0.66,9.11c0,3.14,0.24,6.22,0.67,9.24c5.9,1.6,11.02,5.75,13.55,11.78c2.53,6.04,1.88,12.57-1.14,17.84
					c3.72,4.91,8.13,9.28,13.09,12.96c5.31-3.01,11.9-3.67,17.99-1.17c6.09,2.5,10.28,7.56,11.91,13.41c3,0.42,6.07,0.65,9.19,0.65
					c3.16,0,6.27-0.24,9.31-0.67c1.61-5.85,5.8-10.93,11.88-13.44c6.09-2.51,12.67-1.86,17.99,1.13c4.95-3.69,9.35-8.06,13.07-12.98
					c-3.03-5.27-3.7-11.8-1.18-17.84c2.52-6.04,7.63-10.2,13.52-11.81c0.42-2.98,0.66-6.02,0.66-9.11
					C770.97,629.84,770.74,626.76,770.3,623.74z M705.72,664.55c-17.58,0-31.84-14.14-31.84-31.57c0-17.44,14.25-31.57,31.84-31.57
					s31.84,14.14,31.84,31.57C737.56,650.41,723.31,664.55,705.72,664.55z"/><ellipse cx="705.72" cy="632.98" fill="#b9e0fb" rx="18.62" ry="18.46"/></g><g><path fill="#b9e0fb" d="M439.54,1346.76c-5.64-1.53-10.53-5.49-12.94-11.26c-2.42-5.77-1.79-12.01,1.09-17.05
					c-3.56-4.69-7.77-8.86-12.51-12.38c-5.08,2.87-11.37,3.5-17.19,1.12c-5.82-2.38-9.83-7.23-11.38-12.81
					c-2.87-0.4-5.8-0.62-8.78-0.62c-3.02,0-5.99,0.22-8.9,0.64c-1.54,5.59-5.54,10.44-11.35,12.84c-5.82,2.4-12.11,1.78-17.19-1.08
					c-4.73,3.53-8.94,7.71-12.49,12.4c2.9,5.03,3.53,11.27,1.13,17.05c-2.4,5.77-7.29,9.75-12.92,11.29
					c-0.4,2.85-0.63,5.75-0.63,8.7c0,3,0.23,5.94,0.64,8.82c5.64,1.53,10.53,5.49,12.94,11.26c2.42,5.77,1.79,12.01-1.09,17.05
					c3.56,4.69,7.77,8.86,12.51,12.38c5.08-2.87,11.37-3.5,17.19-1.12c5.82,2.38,9.83,7.23,11.38,12.81c2.87,0.4,5.8,0.62,8.78,0.62
					c3.02,0,5.99-0.23,8.9-0.64c1.54-5.59,5.54-10.44,11.35-12.84c5.82-2.4,12.11-1.78,17.19,1.08c4.73-3.53,8.94-7.71,12.49-12.4
					c-2.9-5.03-3.53-11.27-1.13-17.05c2.4-5.77,7.29-9.75,12.92-11.29c0.4-2.85,0.63-5.75,0.63-8.7
					C440.18,1352.58,439.95,1349.64,439.54,1346.76z M377.84,1385.75c-16.8,0-30.42-13.51-30.42-30.17
					c0-16.66,13.62-30.17,30.42-30.17s30.42,13.51,30.42,30.17C408.25,1372.24,394.64,1385.75,377.84,1385.75z"/><ellipse cx="377.84" cy="1355.58" fill="#b9e0fb" rx="17.79" ry="17.64"/></g><g><ellipse cx="719.84" cy="1013.06" fill="#b3ddfb" rx="226.2" ry="224.33"/><path fill="#e1f2ff" d="M858.3,875.74c-36.92-36.61-86.08-56.78-138.44-56.78c-52.36,0-101.52,20.16-138.44,56.78
						c-76.32,75.71-76.32,198.88,0,274.59c37.06,36.74,86.21,56.97,138.42,56.97c30.38,0,60.85-7.21,88.13-20.84
						c18.57-9.28,35.5-21.44,50.33-36.14c14.81-14.69,27.07-31.48,36.44-49.9C932.85,1025.45,918.21,935.16,858.3,875.74z
						 M719.86,834.77c48.1,0,93.26,18.52,127.17,52.15c55.03,54.57,68.49,137.51,33.48,206.39c-8.61,16.92-19.87,32.35-33.48,45.84
						c-13.61,13.51-29.17,24.68-46.23,33.2c-25.05,12.53-53.04,19.15-80.94,19.15h-0.01c-47.97,0-93.12-18.59-127.14-52.35
						c-33.92-33.63-52.59-78.42-52.59-126.11c0-47.69,18.67-92.48,52.59-126.11C626.61,853.29,671.77,834.77,719.86,834.77z"/><path fill="#60b3e5" d="M638.36,903.41l10.8,10.71l0,0l16.79,16.65l-6.14,22.74l-22.93,6.09l-16.23-16.1l0,0l-11.35-11.26
							c-4.31,14.51-0.7,30.85,10.85,42.3c16.81,16.67,44.07,16.67,60.89,0c16.81-16.67,16.81-43.71,0-60.38
							C669.47,902.72,652.99,899.13,638.36,903.41z"/><path fill="#60b3e5" d="M826.88,1115.88l-3.36,3.33c-8.35,8.28-21.89,8.28-30.25,0l-138.44-137.3l33.61-33.33l138.44,137.3
							C835.23,1094.16,835.23,1107.59,826.88,1115.88z"/><path fill="#77c3f0" d="M729.55,1033.06l-3.59,3.56c-1.49,1.47-3.89,1.47-5.38,0l-24.51-24.31c-1.49-1.47-1.49-3.86,0-5.34
							l3.59-3.56c1.49-1.47,3.89-1.47,5.38,0l24.51,24.31C731.04,1029.2,731.04,1031.59,729.55,1033.06z"/><path fill="#77c3f0" d="M707.15,1055.29l-66.04,65.5c-4.08,4.05-10,5.22-15.12,3.56c-0.61-0.23-1.26-0.49-1.87-0.79
							c-1.41-0.64-2.75-1.59-3.93-2.76l-8.97-8.9c-1.18-1.17-2.14-2.5-2.79-3.9c-0.34-0.64-0.61-1.29-0.8-1.93
							c-1.68-5.07-0.5-10.87,3.59-14.92l66.04-65.5l19.01-13.1l10.57-7.31l20.88,20.71l-7.37,10.49L707.15,1055.29z"/><path fill="#77c3f0" d="M832.79,907.89l-3.45-3.43l-3.45-3.43l-19.37,10.3l-0.04,0.16c-1.39,5.2-5.29,12.01-9.12,15.82
							l-91.62,90.86l8.95,8.88l91.62-90.86c3.83-3.8,10.71-7.66,15.95-9.05l0.16-0.04L832.79,907.89z"/><g><path fill="#60b3e5" d="M684.21,1040.48l-72.49,71.9l-0.5-0.49c-1.18-1.17-2.14-2.5-2.79-3.9l71.92-71.33
							c1.53-1.51,3.66-1.89,4.7-0.87C686.12,1036.85,685.74,1038.97,684.21,1040.48z"/><path fill="#60b3e5" d="M696.04,1052.22l-71.92,71.33c-1.41-0.64-2.75-1.59-3.93-2.76l-0.46-0.45l72.49-71.9
							c1.53-1.51,3.63-1.93,4.7-0.87C697.99,1048.62,697.57,1050.7,696.04,1052.22z"/></g><g><path fill="#fff" d="M1173.3,359.79H915.03c-32.81,0-59.4,26.38-59.4,58.91v256.13c0,32.54,26.6,58.91,59.4,58.91h258.27
						c32.81,0,59.4-26.38,59.4-58.91V418.71C1232.7,386.17,1206.1,359.79,1173.3,359.79z"/><path fill="#68b8e9" d="M1170.92,511.97c-2.9-10.41-7.02-20.29-12.28-29.49c-13.74,4.95-29.71,2.07-40.73-8.86
							s-13.92-26.76-8.93-40.39c-9.27-5.22-19.23-9.3-29.73-12.17c-6.19,13.12-19.53,22.26-35.1,22.26s-28.9-9.15-35.1-22.26
							c-10.49,2.88-20.46,6.96-29.73,12.17c4.99,13.63,2.09,29.46-8.93,40.39s-26.99,13.81-40.73,8.86
							c-5.26,9.19-9.37,19.08-12.28,29.49c13.23,6.14,22.45,19.36,22.45,34.81s-9.22,28.67-22.45,34.81
							c2.9,10.41,7.02,20.29,12.28,29.48c13.74-4.95,29.71-2.07,40.73,8.86c11.02,10.93,13.92,26.76,8.93,40.39
							c9.27,5.22,19.24,9.3,29.73,12.17c6.19-13.12,19.53-22.26,35.1-22.26s28.9,9.15,35.1,22.26c10.49-2.88,20.46-6.96,29.73-12.17
							c-4.99-13.63-2.09-29.46,8.93-40.39c11.02-10.93,26.99-13.81,40.73-8.86c5.26-9.19,9.37-19.08,12.28-29.48
							c-13.23-6.14-22.45-19.36-22.45-34.81S1157.7,518.11,1170.92,511.97z M1044.16,592.42c-25.42,0-46.03-20.44-46.03-45.65
							s20.61-45.65,46.03-45.65c25.42,0,46.03,20.44,46.03,45.65S1069.58,592.42,1044.16,592.42z"/><ellipse cx="1184.77" cy="346.51" fill="#92d0f6" rx="70.2" ry="69.62"/><path fill="#fff" d="M1174.22,381.23l-28.64-28.4c-2.8-2.78-2.8-7.28,0-10.05l0,0c2.8-2.78,7.34-2.78,10.14,0l18.5,18.35
								l39.6-39.27c2.8-2.78,7.34-2.78,10.14,0v0c2.8,2.78,2.8,7.28,0,10.05L1174.22,381.23z"/></g><g><ellipse cx="1612.2" cy="436.29" fill="#68b8e9" rx="141.02" ry="139.85"/><path fill="#fff" d="M1682.41,413.09c8.88-8.81,11.66-21.37,8.34-32.53l-8.31,8.24l0,0l-12.91,12.8l-17.63-4.69l-4.72-17.49
							l12.48-12.38l0,0l8.73-8.66c-11.75-3.44-25.05-0.28-33.96,9.48c-7.22,7.9-9.84,18.59-7.85,28.52l-88.93,88.19
							c-7.14,7.08-7.14,18.55,0,25.63v0c7.14,7.08,18.71,7.08,25.84,0l88.91-88.17C1662.92,424.15,1674.26,421.17,1682.41,413.09z"/><ellipse cx="1450.74" cy="369.83" fill="#92d0f6" rx="61.83" ry="61.32"/><path fill="#fff" d="M1441.45,400.41l-25.23-25.02c-2.47-2.45-2.47-6.41,0-8.85l0,0c2.47-2.45,6.46-2.45,8.93,0l16.3,16.16
								l34.88-34.59c2.47-2.45,6.46-2.45,8.93,0v0c2.47,2.44,2.47,6.41,0,8.85L1441.45,400.41z"/></g><g><ellipse cx="2031.66" cy="1167.43" fill="#68b8e9" rx="161.46" ry="160.13"/><polygon fill="#fff" points="2115.26 1108.46 1948.06 1108.46 2031.66 1164.07"/><polygon fill="#fff" points="2122.97 1108.46 2122.97 1108.46 2122.97 1108.46"/><polygon fill="#fff" points="1940.35 1108.46 1940.35 1108.46 1940.35 1108.46"/><polygon fill="#fff" points="2031.66 1174.33 1940.35 1113.59 1940.35 1229.93 2122.97 1229.93 2122.97 1113.59"/><g><ellipse cx="2137.64" cy="1041.82" fill="#92d0f6" rx="45.66" ry="45.28"/></g><g><path fill="#fff" d="M2134.66,1022.81h-0.15l-8.92,4.77l-1.34-5.24l11.2-5.95h5.92v50.85h-6.71V1022.81z"/></g></g><g><path fill="#92d0f6" d="M2061.72,686.32c-4.77,0-9.47,0.48-13.99,1.33c-10.15-69.58-70.59-123.03-143.55-123.03
						c-61.72,0-114.46,38.24-135.37,92.12c-3.73-0.61-7.64-0.85-11.55-0.85c-45.71,0-82.75,36.79-82.75,82.12
						c0,24.3,10.63,46.12,27.5,61.15h418.5c8.43-11.7,13.32-25.94,13.32-41.33C2133.84,718.32,2101.57,686.32,2061.72,686.32z"/><rect width="37.93" height="78.06" x="1838.29" y="683.57" fill="#fff"/><polygon fill="#fff" points="1857.25 632.98 1816.08 686.75 1898.42 686.75"/><g><rect width="37.93" height="78.06" x="1936.76" y="632.98" fill="#fff"/><polygon fill="#fff" points="1955.72 761.64 1996.89 707.87 1914.56 707.87"/></g></g><g><path fill="#63b6d3" d="M1600.01,1609c3.8,53.44,9.09,106.24,15.21,159.47c-43.32,9.22-113.26,22.84-166.08,32.9
						c-41.2,7.96-72.26,13.83-73.11,13.83c-0.85,0-30.85-5.66-71-13.41c-53.25-10.06-124.25-23.89-168.2-33.32
						c6.13-53.23,11.41-106.04,15.21-159.47c1.48-22,3.8-86.55,4.01-108.13c0.63-59.09-19.23-332.77-19.23-332.77
						c24.93-14.04,112.62-38.35,146.43-44.43h0.42c0.42,0,0.63-0.21,1.06-0.21l91.28-15.09l91.28,15.09c0.42,0,0.63,0.21,1.06,0.21
						c0.84,0.21,1.9,0.21,2.96,0.63c35.5,6.5,119.6,30.18,143.9,43.8c0,0-19.86,273.68-19.23,332.77
						C1596.2,1522.46,1598.53,1587,1600.01,1609z"/><path fill="#eaa196" d="M1254.6,1280.29c-16.91,43.13-64.76,65.24-108.58,51.08c-1.56-0.5-3.12-1.06-4.67-1.65
									c-45.04-17.37-67.35-67.65-49.84-112.31s68.21-66.79,113.25-49.43C1249.8,1185.34,1272.11,1235.62,1254.6,1280.29z"/><ellipse cx="1058.73" cy="1555.32" fill="#eaa196" rx="62.47" ry="61.95"/><path fill="#eaa196" d="M1091.54,1217.41L1091.54,1217.41c-48.1,120.44-59.85,187.87-90.61,313.77l-0.41,1.68l116.44,44.9l0,0
									c46.56-121.04,73.75-182.51,136.83-295.95l0.84-1.52L1091.54,1217.41z"/><path fill="#63b6d3" d="M1250.68,1310.88c28.62-62.68,10.87-122.46-43.38-145.29c-39.36-16.56-90.27,3.04-115.4,33.3
								c-7.01,8.44-21.21,31.62-25.11,41.64c-14.89,38.35-56.39,182.97-75,254.55l149.37,45.1
								C1178.12,1461.18,1220.91,1376.08,1250.68,1310.88z"/><polygon fill="#37a6bf" points="1284.4 1123.79 1209.3 1242.81 1254.63 1280.3 1229.97 1318.66 1313.43 1510.03 1340.39 1179.95"/><ellipse cx="1058.58" cy="1555.63" fill="#eaa196" rx="62.35" ry="61.83"/><ellipse cx="1235.25" cy="1664.16" fill="#eaa196" rx="45.3" ry="44.93"/><path fill="#eaa196" d="M1016.47,1601.23c24.5,22.3,161.96,90.06,198.74,103.24l50.67-73.46
										c-58.04-40.01-116.14-74.71-165.18-120.97L1016.47,1601.23z"/><path fill="#37a6bf" d="M1156.64,1517.72c-0.06,0-0.11,0-0.18,0c-2.92-0.1-5.2-2.53-5.11-5.41l5.18-151.66
								c0.11-2.9,2.95-4.75,5.46-5.06c2.92,0.1,5.2,2.53,5.11,5.41l-5.18,151.66C1161.82,1515.49,1159.48,1517.72,1156.64,1517.72z"/><path fill="#63b6d3" d="M1065.3,1461.79l-73.5,33.31l-7.57,33.37c-7.87,34.67,8.67,70.26,40.36,86.85l184.71,89.14l61.32-76.94
							l-129.46-87.33L1065.3,1461.79z"/><path fill="#eaa196" d="M1359.1,1702.73c-0.24-0.77-0.86-1.37-1.46-1.92c-12.08-11.25-24.17-22.51-36.64-33.34
									c-5.46-4.74-11.07-9.44-17.52-12.74c-8.04-4.11-16.68-6.51-25.42-8.55c-5.23-4.97-11.58-8.78-18.45-10.84
									c-1.06-0.32-2.09-0.55-3.1-0.73c-9.41-4.15-20.43-4.72-30.78-0.68c-2.09,0.81-4.03,1.82-5.89,2.92
									c-11.77,0.71-23.41,1.68-35.38,0.86c-4.69-0.32-8.51,1.1-11.6,4.55c-7.44,8.32-16.48,16.56-22.38,26.04
									c-3.21,5.16-5.76,10.67-9,15.73c-4.17,6.5-8.86,12.65-12.94,19.21c-3.35,5.39-13.76,20.37-1.13,20.9
									c12.6,0.53,21.02-5.4,28.09-15.06c5.44-7.44,11.43-14.48,17.9-21.06c3.71-3.77,7.69-1.76,11.89,0.2
									c1.45,0.67,2.89,1.33,4.33,1.99c-3.62,11.81-7.48,23.5-12.07,35.08c-0.58,1.47-1.15,3.19-0.35,4.55
									c0.51,0.87,1.48,1.38,2.42,1.77c6.79,2.85,14.93,2.34,21.31-1.33c8.49-4.89,13.25-14.16,16.59-24.23
									c0.86,0.37,1.72,0.77,2.59,1.11c20.99,8.25,51.97,9.53,66.16-11.27c2.82-4.14,4.74-8.93,5.46-14.19
									c5.66,2.63,10.97,5.97,15.72,10c6.27,5.32,11.66,11.79,18.81,15.89c5.01,2.87,10.76,4.46,16.54,4.57
									c5.67,0.11,11.8-1.48,15.26-5.93C1358.84,1705.21,1359.48,1703.93,1359.1,1702.73z"/><path fill="#eaa196" d="M1253.74,1638c5.25,0.66,10.22,3.96,13.13,8.2c5.13,7.46,7.89,16.92,9.27,25.71
									c3.07,19.63,6.07,38.91,10.96,58.15c0.39,1.53,0.73,3.31-0.24,4.56c-0.62,0.8-1.65,1.18-2.63,1.45
									c-7.11,1.97-15.11,0.43-20.96-4.02c-23.01-17.51-7.99-53.37-25.31-73.81c-1.31-1.54-2.8-3.02-3.43-4.93
									c-1.34-4.06,1.71-8.27,5.14-10.85c3.21-2.42,7-4.2,11.02-4.52C1251.71,1637.84,1252.73,1637.87,1253.74,1638z"/><path fill="#37a6bf" d="M1265.87,1629.57c-1.03,0-2.06-0.3-2.97-0.91l-124.7-84.13c-15.52-10.85-37.95-13.41-38.17-13.43
							c-2.9-0.32-4.99-2.91-4.67-5.78s3.1-4.95,5.82-4.64c1.03,0.11,25.34,2.85,43.04,15.25l124.62,84.08
							c2.41,1.63,3.03,4.88,1.39,7.28C1269.21,1628.77,1267.55,1629.57,1265.87,1629.57z"/><path fill="#eaa196" d="M1499.7,1280.29c16.91,43.13,64.76,65.24,108.58,51.08c1.56-0.5,3.12-1.06,4.67-1.65
									c45.04-17.37,67.35-67.65,49.84-112.31s-68.21-66.79-113.25-49.43C1504.5,1185.34,1482.19,1235.62,1499.7,1280.29z"/><ellipse cx="1695.56" cy="1555.32" fill="#eaa196" rx="62.47" ry="61.95"/><path fill="#eaa196" d="M1662.76,1217.41L1662.76,1217.41c48.1,120.44,59.85,187.87,90.61,313.77l0.41,1.68l-116.44,44.9l0,0
									c-46.56-121.04-73.75-182.51-136.83-295.95l-0.84-1.52L1662.76,1217.41z"/><path fill="#63b6d3" d="M1503.62,1310.88c-28.62-62.68-10.87-122.46,43.38-145.29c39.36-16.56,90.27,3.04,115.4,33.3
								c7.01,8.44,21.21,31.62,25.11,41.64c14.89,38.35,56.39,182.97,75,254.55l-149.37,45.1
								C1576.18,1461.18,1533.39,1376.08,1503.62,1310.88z"/><polygon fill="#37a6bf" points="1469.89 1123.79 1545 1242.81 1499.67 1280.3 1524.33 1318.66 1440.86 1510.03 1413.91 1179.95"/><ellipse cx="1695.72" cy="1555.63" fill="#eaa196" rx="62.35" ry="61.83"/><ellipse cx="1519.05" cy="1664.16" fill="#eaa196" rx="45.3" ry="44.93"/><path fill="#eaa196" d="M1737.83,1601.23c-24.5,22.3-161.96,90.06-198.74,103.24l-50.67-73.46
										c58.04-40.01,116.14-74.71,165.18-120.97L1737.83,1601.23z"/><path fill="#37a6bf" d="M1597.66,1517.72c0.06,0,0.11,0,0.18,0c2.92-0.1,5.2-2.53,5.11-5.41l-5.18-151.66
								c-0.11-2.9-2.95-4.75-5.46-5.06c-2.92,0.1-5.2,2.53-5.11,5.41l5.18,151.66C1592.48,1515.49,1594.82,1517.72,1597.66,1517.72z
								"/><path fill="#63b6d3" d="M1689,1461.79l73.5,33.31l7.57,33.37c7.87,34.67-8.67,70.26-40.36,86.85L1545,1704.47l-61.32-76.94
							l129.46-87.33L1689,1461.79z"/><path fill="#eaa196" d="M1395.19,1702.73c0.24-0.77,0.86-1.37,1.46-1.92c12.08-11.25,24.17-22.51,36.64-33.34
									c5.46-4.74,11.07-9.44,17.52-12.74c8.04-4.11,16.68-6.51,25.42-8.55c5.23-4.97,11.58-8.78,18.45-10.84
									c1.06-0.32,2.09-0.55,3.1-0.73c9.41-4.15,20.43-4.72,30.78-0.68c2.09,0.81,4.03,1.82,5.89,2.92
									c11.77,0.71,23.41,1.68,35.38,0.86c4.69-0.32,8.51,1.1,11.6,4.55c7.44,8.32,16.48,16.56,22.38,26.04
									c3.21,5.16,5.76,10.67,9,15.73c4.17,6.5,8.86,12.65,12.94,19.21c3.35,5.39,13.76,20.37,1.13,20.9
									c-12.6,0.53-21.02-5.4-28.09-15.06c-5.44-7.44-11.43-14.48-17.9-21.06c-3.71-3.77-7.69-1.76-11.89,0.2
									c-1.45,0.67-2.89,1.33-4.33,1.99c3.62,11.81,7.48,23.5,12.07,35.08c0.58,1.47,1.15,3.19,0.35,4.55
									c-0.51,0.87-1.48,1.38-2.42,1.77c-6.79,2.85-14.93,2.34-21.31-1.33c-8.49-4.89-13.25-14.16-16.59-24.23
									c-0.86,0.37-1.72,0.77-2.59,1.11c-20.99,8.25-51.97,9.53-66.16-11.27c-2.82-4.14-4.74-8.93-5.46-14.19
									c-5.66,2.63-10.97,5.97-15.72,10c-6.27,5.32-11.66,11.79-18.81,15.89c-5.01,2.87-10.76,4.46-16.54,4.57
									c-5.67,0.11-11.8-1.48-15.26-5.93C1395.46,1705.21,1394.82,1703.93,1395.19,1702.73z"/><path fill="#eaa196" d="M1500.56,1638c-5.25,0.66-10.22,3.96-13.13,8.2c-5.13,7.46-7.89,16.92-9.27,25.71
									c-3.07,19.63-6.07,38.91-10.96,58.15c-0.39,1.53-0.73,3.31,0.24,4.56c0.62,0.8,1.65,1.18,2.63,1.45
									c7.11,1.97,15.11,0.43,20.96-4.02c23.01-17.51,7.99-53.37,25.31-73.81c1.31-1.54,2.8-3.02,3.43-4.93
									c1.34-4.06-1.71-8.27-5.14-10.85c-3.21-2.42-7-4.2-11.02-4.52C1502.59,1637.84,1501.57,1637.87,1500.56,1638z"/><path fill="#37a6bf" d="M1488.43,1629.57c-1.68,0-3.34-0.8-4.36-2.29c-1.64-2.39-1.02-5.65,1.39-7.28l124.7-84.13
							c17.63-12.34,41.94-15.08,42.97-15.19c2.72-0.31,5.49,1.76,5.82,4.64c0.32,2.88-1.77,5.46-4.67,5.78
							c-0.23,0.02-22.66,2.59-38.1,13.38l-124.77,84.18C1490.49,1629.27,1489.46,1629.57,1488.43,1629.57z"/><path fill="#fff" d="M1444.48,1509.88l4.65,291.49c-41.2,7.96-72.26,13.83-73.11,13.83c-0.85,0-30.85-5.66-71-13.41
						l4.86-291.91c0,0-61.7-321.88-26.62-386.21h187.85c0,0.21,0.21,0.42,0.21,0.63
						C1505.76,1189.89,1444.48,1509.88,1444.48,1509.88z"/><path fill="#193368" d="M1535.25,869.14c-4.79-24.36-24.45-44.3-47.63-49.66c0.28-14.8-6.78-28.24-19.12-35.18
							c-5.8-3.25-12.59-4.97-19.59-4.97c-7.45,0-14.65,1.9-20.8,5.39c-14.56-17.79-36.61-29.14-61.27-29.14
							c-34.81,0-64.06,22.73-74.78,54.15c-4.58-1.16-9.34-1.89-14.26-1.89c-16.43,0-33.04,6.69-44.41,17.89
							c-17.23,16.97-24.1,43.23-17.92,68.54c3.25,13.31,10.09,23.96,19.11,30.28c-8.19,15.08-8.93,33.45-1.87,52.88
							c3.48,9.55,7.76,17.42,17.41,24.76c0.11,0.09,8.69,5.71,16.85,9.3c-1.71,9.8,0.19,20.31,5.65,29.63
							c6.41,10.97,16.83,18.39,28.56,20.58c4.83,7.65,14.09,12.61,24.47,12.61c3.99,0,7.77-0.75,11.29-2.22
							c7.79-3.28,14.12-9.72,17.95-17.81c4.11,2.93,8.34,5.64,13.15,8.65c11.27,7.08,20.99,11.46,30.62,13.81
							c4.93,1.19,10.04,1.8,15.14,1.8c16.31,0,30.57-6.15,39.13-16.88c1.98-2.45,3.43-5,4.34-7.55
							c13.96-1.63,26.09-8.51,32.56-18.78c4.91-7.78,6.1-17.86,3.2-26.96c-0.4-1.24-0.87-2.45-1.41-3.61
							c12.76-4.49,23.59-13.39,29.31-24.76c7.65-15.24,5.54-33.69-4.47-46.46C1532.4,914.98,1539.55,891.02,1535.25,869.14z"/><g><polygon fill="#eaa196" points="1447.1 1152.09 1377.15 1194.3 1307.15 1152.09 1315.39 949.85 1439.05 949.85"/></g><g><path fill="#cc7972" d="M1443.95,1075.21c-3.73,5.45-7.85,10.71-11.97,15.18c-12.37,13.04-27.28,25.11-44.16,29.39
								c-20.81,5.26-40.83-8.37-56.73-21.61c-7.85-6.42-14.92-13.63-20.81-21.8l0.2-4.09l1.57-42.63l3.34-79.81h123.65l3.14,79.81
								l1.57,39.71L1443.95,1075.21z"/></g><g><path fill="#eaa196" d="M1377.12,811.89c-70.25,0-110.07,56.55-110.18,115.7c-0.09,50.66,9.31,91.76,32.24,132.78
							c14.5,25.94,43.5,44.91,77.93,44.91s63.43-18.97,77.93-44.91c22.94-41.02,32.34-82.12,32.24-132.78
							C1487.19,868.44,1447.37,811.89,1377.12,811.89z"/></g><g><path fill="#193368" d="M1416.64,985.04c-4.52-0.9-8.9,2-9.81,6.48c-0.9,4.47,2.02,8.83,6.53,9.73c4.52,0.9,8.9-2,9.81-6.48
									C1424.08,990.29,1421.15,985.93,1416.64,985.04z"/><path fill="#193368" d="M1441.83,960.18c-0.41-1.73-2.64-2.71-4.71-3.01c-9.65-1.4-19.27-0.27-28.69,1.82
										c-3.31,0.73-12.32,1.96-10.89,6.37c0.93,2.86,6.2,4.94,9.5,4.62c7.37-0.72,14.71-1.62,22.01-2.7
										C1433.18,966.66,1443.17,965.87,1441.83,960.18z"/><path fill="#193368" d="M1337.6,985.04c4.52-0.9,8.9,2,9.81,6.48c0.9,4.47-2.02,8.83-6.53,9.73c-4.52,0.9-8.9-2-9.81-6.48
									C1330.17,990.29,1333.09,985.93,1337.6,985.04z"/><path fill="#193368" d="M1312.41,960.18c0.41-1.73,2.64-2.71,4.71-3.01c9.65-1.4,19.27-0.27,28.69,1.82
										c3.31,0.73,12.32,1.96,10.89,6.37c-0.93,2.86-6.2,4.94-9.5,4.62c-7.37-0.72-14.71-1.62-22.01-2.7
										C1321.06,966.66,1311.07,965.87,1312.41,960.18z"/><g><path fill="#fff" d="M1350.02,1047.25c3.88,10.26,14.37,17.76,27.11,17.76c12.74,0,23.22-7.5,27.1-17.76H1350.02z"/></g><g><path fill="#cc7972" d="M1383.55,1033.95c-6.03,0-10.59-0.62-13.31-3.67c-1.94-2.19-2.62-5.34-2.06-9.63
								c0.52-4.09,1.92-13.38,2.83-19.35l0.56-3.72c0.23-1.43,1.36-2.46,3.01-2.2c1.44,0.21,2.43,1.55,2.23,2.98l-0.58,3.73
								c-0.89,5.91-2.29,15.14-2.81,19.22c-0.35,2.71-0.08,4.52,0.78,5.5c1.49,1.68,5.57,1.9,9.35,1.9c1.47,0,2.64,1.18,2.64,2.62
								S1385.02,1033.95,1383.55,1033.95z"/></g></g><path fill="#193368" d="M1412.46,815.92c-10.63-3.12-22.44-4.88-35.24-4.88c-13.38,0-25.79,1.95-37.01,5.27
						c-53.15,16.2-80.91,67.55-81.1,118.12c0,15.03,0.99,29.28,2.95,42.95h14.37v-48.03c6.86-3.54,13.57-10.74,18.49-19.4
						c5.62,7.29,14.39,12.07,24.35,12.07c12.54,0,23.29-7.47,28.07-18.15c6.14,3.41,13.12,5.52,20.65,5.52
						c11.21,0,21.33-4.38,28.93-11.41c5.89,14.1,19.88,24.04,36.23,24.04c10.51,0,20.01-4.16,27.06-10.84
						c4.76,8.07,11.07,14.76,17.6,18.17v48.03h14.57c1.97-13.67,2.96-27.92,2.96-42.95
						C1495.14,883.28,1466.79,831.54,1412.46,815.92z"/><g><ellipse cx="1484.56" cy="985.66" fill="#eaa196" rx="29.33" ry="21.68" transform="rotate(-75.315 1484.671 985.685)"/></g><g><ellipse cx="1269.68" cy="985.66" fill="#eaa196" rx="21.68" ry="29.33" transform="rotate(-14.685 1269.515 985.566)"/></g><g><path fill="#cc7972" d="M1472.67,988.85c-0.21,0-0.39-0.02-0.6-0.07c-1.42-0.33-2.31-1.73-1.98-3.14
							c2.43-10.38,9.66-17.35,17.93-17.35c4.79,0,8.93,2.9,11.68,8.14c0.66,1.28,0.17,2.86-1.13,3.52c-1.3,0.69-2.89,0.15-3.57-1.13
							c-1.26-2.41-3.49-5.3-6.97-5.3c-5.78,0-10.92,5.34-12.77,13.3C1474.96,988.03,1473.87,988.85,1472.67,988.85z"/></g><g><path fill="#cc7972" d="M1281.57,988.85c-1.2,0-2.29-0.81-2.58-2.02c-1.88-7.96-7.02-13.31-12.77-13.31
							c-3.49,0-5.72,2.89-6.97,5.3c-0.66,1.3-2.25,1.82-3.57,1.13c-1.3-0.65-1.8-2.24-1.13-3.52c2.74-5.25,6.89-8.14,11.68-8.14
							c8.25,0,15.46,6.97,17.93,17.34c0.33,1.41-0.56,2.82-1.98,3.15C1281.97,988.83,1281.78,988.85,1281.57,988.85z"/></g><g><path fill="#bbd6f2" d="M1377.15,1194.3l-37.7-31.69c-15.85-13.32-26.66-31.6-30.66-51.82l0,0l-25.53,13l46.94,105.87
							L1377.15,1194.3z"/><path fill="#bbd6f2" d="M1377.15,1194.3l37.7-31.69c15.85-13.32,26.66-31.6,30.66-51.82l0,0l25.53,13l-46.94,105.87
							L1377.15,1194.3z"/></g><polygon fill="#193972" points="1417.82 1704.47 1390.65 1254.07 1412.25 1236.42 1377.15 1201.47 1342.05 1236.42 1363.65 1254.07 1336.48 1704.47 1377.15 1736.8"/><g><path fill="#92d0f6" d="M1623.51,1469.02h-246.36h-246.36c-19.29,0-34.14,16.91-31.49,35.86l36.47,260.56
							c1.37,9.78,9.8,17.06,19.76,17.06h221.61h221.61c9.96,0,18.39-7.28,19.76-17.06l36.47-260.56
							C1657.65,1485.93,1642.8,1469.02,1623.51,1469.02z"/><path fill="#60b3e5" d="M1595.08,1782.51h-435.86c-2.03,0-3.68,0.99-3.68,2.21v6.41c0,1.22,1.65,2.21,3.68,2.21h435.86
							c2.03,0,3.68-0.99,3.68-2.21v-6.41C1598.76,1783.5,1597.11,1782.51,1595.08,1782.51z"/><ellipse cx="1377.15" cy="1633.55" fill="#fff" rx="36.74" ry="29.52"/></g><polygon fill="#51a9de" points="1971.45 1818.76 965.34 1818.76 965.28 1818.76 785.21 1787.94 1155.53 1787.94 1232.91 1787.94 1305.24 1787.94 1448.9 1787.94 1518.75 1787.94 1598.77 1787.94 2076.34 1787.94"/></g></g></svg>